<?xml version="1.0" standalone="no"?>
<!DOCTYPE svg PUBLIC "-//W3C//DTD SVG 20010904//EN"
 "http://www.w3.org/TR/2001/REC-SVG-20010904/DTD/svg10.dtd">
<svg version="1.0" xmlns="http://www.w3.org/2000/svg"
 width="1280.000000pt" height="1024.000000pt" viewBox="0 0 1280.000000 1024.000000"
 preserveAspectRatio="xMidYMid meet">
<metadata>
Created by potrace 1.16, written by Peter Selinger 2001-2019
</metadata>
<g transform="translate(0.000000,1024.000000) scale(0.100000,-0.100000)"
fill="#000000" stroke="none">
<path d="M3105 4084 c-295 -66 -529 -300 -590 -592 -19 -86 -19 -238 0 -324
32 -153 97 -270 217 -390 73 -73 101 -94 190 -137 58 -29 134 -58 173 -66 103
-22 275 -19 368 5 218 55 400 204 497 405 59 123 80 212 80 348 0 347 -231
651 -565 742 -87 24 -283 29 -370 9z"/>
<path d="M6236 4083 c-151 -32 -275 -101 -386 -213 -151 -153 -219 -324 -220
-546 0 -160 45 -304 138 -441 40 -58 130 -150 188 -190 59 -42 175 -94 251
-113 104 -27 281 -27 386 -1 259 67 466 267 549 531 20 65 23 95 23 225 -1
137 -3 157 -28 230 -78 223 -238 396 -444 480 -132 53 -316 69 -457 38z"/>
<path d="M9370 4085 c-364 -81 -610 -385 -610 -752 0 -136 21 -225 80 -348 97
-201 279 -350 497 -405 93 -24 265 -27 368 -5 39 8 115 37 173 66 89 43 117
64 190 137 121 121 185 237 219 395 18 89 13 275 -11 362 -71 255 -285 469
-541 540 -84 23 -282 29 -365 10z"/>
</g>
</svg>
